<svg width="161" height="161" viewBox="0 0 161 161" fill="none" xmlns="http://www.w3.org/2000/svg">
<path d="M34.7561 92.4719C34.2064 92.913 33.548 93.1274 32.8945 93.1274C32.0216 93.1274 31.1565 92.7456 30.5681 92.0103L30.1589 91.4991C29.7187 90.9492 29.5046 90.2914 29.5042 89.6375C29.5038 88.7627 29.8855 87.8958 30.6203 87.306C31.9039 86.2765 33.7789 86.4823 34.8082 87.7676L35.2175 88.2787C35.6576 88.8287 35.8718 89.4864 35.8725 90.1404C35.8725 91.0152 35.4904 91.8821 34.7561 92.4719ZM43.2262 107.826C43.8146 108.562 44.6804 108.945 45.554 108.945C46.2068 108.945 46.8645 108.732 47.4138 108.291C48.1489 107.702 48.5313 106.836 48.5317 105.961C48.5317 105.307 48.3183 104.649 47.8785 104.099L47.47 103.588C46.4418 102.301 44.5668 102.093 43.2824 103.122C42.5473 103.711 42.1649 104.578 42.1645 105.453C42.1645 106.106 42.3779 106.765 42.8177 107.315L43.2262 107.826ZM42.0368 93.913C42.6911 93.913 43.3502 93.6982 43.9002 93.256C44.6346 92.6658 45.0156 91.7985 45.0144 90.9238C45.0133 90.2698 44.7988 89.6117 44.3579 89.0625L43.9483 88.5517C42.9182 87.2672 41.0428 87.0621 39.7599 88.0934C39.0282 88.6818 38.6472 89.5454 38.6457 90.4167C38.645 91.0733 38.8595 91.7348 39.3019 92.287L39.7115 92.7978C40.3003 93.5316 41.1646 93.913 42.0368 93.913ZM34.4861 102.027C35.0745 102.762 35.9392 103.144 36.8117 103.144C37.4656 103.144 38.124 102.929 38.674 102.487C39.4084 101.897 39.7901 101.03 39.7894 100.155C39.7886 99.5018 39.5741 98.8433 39.1339 98.2941L38.7247 97.7833C37.695 96.4988 35.82 96.2926 34.5367 97.3232C33.8024 97.913 33.4207 98.7803 33.4214 99.655C33.4221 100.309 33.6367 100.967 34.0768 101.516L34.4861 102.027ZM2.57109 70.5161C-1.47275 65.4632 -0.657204 58.0582 4.38912 54.0089C6.88603 52.0052 10.0011 51.1554 13.0294 51.4959C13.3575 48.4638 14.8642 45.6039 17.3608 43.6002C22.4074 39.551 29.8036 40.3668 33.8478 45.4201C37.2485 49.6692 37.2128 55.5813 34.1152 59.7629L39.3712 66.3293L41.7333 64.4341C42.3838 63.9124 43.2228 63.6872 44.0458 63.8129C45.2066 63.9904 46.3837 64.2465 47.5452 64.5754C49.1287 65.0228 50.0496 66.6712 49.6023 68.2566C49.1551 69.8416 47.5091 70.7656 45.9253 70.3159C45.4181 70.1727 44.9087 70.0463 44.4 69.9389L24.173 86.1687C24.1372 89.4753 24.8183 92.9619 26.1657 96.3321C26.7771 97.8616 26.0342 99.5976 24.5066 100.209C24.1436 100.355 23.7689 100.424 23.4006 100.424C22.2186 100.424 21.1 99.7147 20.6337 98.5488C18.7814 93.9149 17.9666 89.0528 18.2783 84.4879C18.3349 83.6557 18.7375 82.885 19.3877 82.3633L21.7494 80.4685L16.4934 73.9017C11.7421 76.018 5.9718 74.7641 2.57109 70.5161ZM15.3319 67.6802C15.8816 67.2391 16.5396 67.0251 17.1932 67.0251C18.0661 67.0251 18.9311 67.4072 19.5199 68.1425L26.3995 76.7377L34.7222 70.0598L27.8426 61.465C27.3484 60.8479 27.1197 60.0589 27.2061 59.2726C27.2925 58.4866 27.6876 57.7666 28.3043 57.2722C30.7871 55.2796 31.1885 51.6364 29.1984 49.1506C27.2087 46.6651 23.5701 46.2624 21.0873 48.2553C19.1378 49.8195 18.4146 52.4433 19.2883 54.7845C19.7385 55.9907 19.3646 57.3505 18.3606 58.1559C17.357 58.9616 15.9501 59.0313 14.872 58.3281C12.7803 56.9657 10.0652 57.0999 8.1153 58.6641C5.63255 60.6563 5.23111 64.2995 7.22044 66.7853C9.21052 69.2708 12.8492 69.6731 15.3319 67.6802ZM64.0703 72.7551V77.9181C64.0703 79.5654 65.4042 80.901 67.0494 80.901C68.6947 80.901 70.0286 79.5654 70.0286 77.9181V72.7551C70.0286 71.1079 68.6947 69.7723 67.0494 69.7723C65.4042 69.7723 64.0703 71.1079 64.0703 72.7551ZM97.5206 74.8402C95.3484 73.1672 93.0694 72.2999 90.7464 72.2615C90.7136 72.2604 90.6809 72.2604 90.6488 72.2615C86.7041 72.3264 82.779 74.8804 79.5969 79.4539C74.7952 86.3544 71.5919 98.0711 74.7599 107.113C75.19 108.34 76.341 109.109 77.5711 109.109C77.898 109.109 78.2309 109.054 78.5572 108.94C80.1097 108.395 80.9271 106.693 80.3823 105.138C77.9937 98.3206 80.593 88.4596 84.4861 82.8645C86.4974 79.9737 88.7586 78.2873 90.6984 78.228C91.699 78.2582 92.7719 78.709 93.8879 79.5691C95.1917 80.5736 97.0626 80.329 98.0658 79.0237C99.0687 77.7175 98.8248 75.845 97.5206 74.8402ZM118.359 106.091C120.013 106.126 121.37 104.827 121.409 103.18C121.617 94.4481 118.701 84.574 111.716 82.1985C111.685 82.1881 111.654 82.178 111.623 82.1687C108.503 81.2213 104.908 81.8719 101.231 84.052C94.3307 88.1434 88.0681 97.0954 86.3399 105.338C86.0021 106.95 87.0332 108.532 88.6435 108.87C88.8498 108.913 89.0557 108.935 89.2583 108.935C90.638 108.935 91.8762 107.969 92.1712 106.564C93.5643 99.9194 98.7644 92.4484 104.267 89.1855C106.413 87.913 108.392 87.4443 109.845 87.8641C113.223 89.064 115.63 95.5693 115.452 103.039C115.413 104.685 116.715 106.052 118.359 106.091ZM29.563 36.4984C29.982 36.7019 30.4247 36.7985 30.8612 36.7985C31.9665 36.7985 33.0285 36.1799 33.5435 35.1169C33.6657 34.8649 35.1415 31.0751 35.2692 30.7824C42.2542 17.3852 55.6355 8.50487 71.9907 6.41499C89.0401 4.23787 106.138 10.1108 116.614 21.7455C117.715 22.9688 119.6 23.0665 120.821 21.964C122.043 20.8607 122.141 18.9744 121.039 17.751C115.058 11.1085 107.157 6.02536 98.1909 3.05106C89.6508 0.218081 80.3305 -0.664104 71.2363 0.496979C52.8951 2.84077 37.8496 12.8942 29.957 28.0803C29.8069 28.3693 28.2585 32.3354 28.1662 32.549C27.475 34.0241 28.0947 35.7851 29.563 36.4984ZM91.4789 62.3375C92.6106 63.5336 92.5592 65.4214 91.3646 66.5545C90.1699 67.6873 88.2845 67.6358 87.1528 66.4397C86.0892 65.3155 84.7359 64.5612 83.2397 64.2588C81.8495 63.9781 80.85 62.7551 80.85 61.3349V57.4717H67.7302V61.3349C67.7302 62.7551 66.7303 63.9781 65.3405 64.2588C61.8958 64.9546 59.3963 68.009 59.3963 71.521V105.218C59.3963 106.866 58.0624 108.201 56.4172 108.201C54.7719 108.201 53.438 106.866 53.438 105.218V71.521C53.438 66.0262 56.8246 61.1525 61.7722 59.1328V55.8699C60.3538 54.6502 59.4533 52.8423 59.4533 50.8281V46.8948C59.4533 43.2318 62.4299 40.2516 66.0886 40.2516H82.4923C86.151 40.2516 89.1272 43.2318 89.1272 46.8948V50.8281C89.1272 52.8426 88.2271 54.6506 86.8083 55.8699V59.1313C88.5623 59.846 90.1487 60.931 91.4789 62.3375ZM83.1693 46.8948C83.1693 46.5275 82.8594 46.2173 82.4926 46.2173H66.089C65.7218 46.2173 65.412 46.5275 65.412 46.8948V50.8281C65.412 51.1058 65.5896 51.3512 65.8347 51.4545C65.8432 51.4578 65.8518 51.4616 65.8604 51.4645C65.9322 51.4914 66.0093 51.5059 66.089 51.5059H82.4926C82.5705 51.5059 82.6461 51.4921 82.7164 51.4664C82.7284 51.4616 82.7399 51.4571 82.7518 51.4526C82.9943 51.3486 83.1697 51.104 83.1697 50.8281V46.8948H83.1693ZM147.427 107.07C147.274 113.761 142.939 122.358 135.534 130.657C128.327 138.733 119.054 145.678 109.254 150.366V158.017C109.254 159.664 107.921 161 106.275 161H51.8613C50.216 161 48.8821 159.664 48.8821 158.017V150.366C39.0826 145.678 29.8092 138.733 22.603 130.657C15.1975 122.358 10.8625 113.761 10.709 107.07C10.6826 105.905 11.335 104.832 12.3803 104.321C13.426 103.81 14.6728 103.955 15.5733 104.692C16.867 105.752 21.6798 108.433 38.3843 110.443C49.7081 111.805 64.1567 112.556 79.0685 112.556C93.9803 112.556 108.429 111.805 119.752 110.443C136.456 108.433 141.269 105.752 142.563 104.692C143.463 103.955 144.711 103.81 145.756 104.321C146.801 104.832 147.454 105.905 147.427 107.07ZM103.296 151.443H54.8405V155.034H103.296V151.443ZM140.309 112.382C123.753 118.187 87.1796 118.521 79.0681 118.521C70.9566 118.521 34.3837 118.187 17.8266 112.382C18.7911 115 20.3317 117.846 22.3575 120.764C22.4097 120.821 22.46 120.88 22.5087 120.942C22.9418 121.493 23.8657 122.416 25.1896 122.416C26.3679 122.416 27.4877 121.671 28.2619 120.373C29.1053 118.958 30.9338 118.497 32.347 119.34C33.7595 120.185 34.2213 122.017 33.3778 123.431C32.1013 125.572 30.2467 127.117 28.1412 127.868C30.3127 130.188 32.7418 132.477 35.3854 134.662C36.316 133.602 37.8968 133.324 39.1496 134.074C40.5621 134.919 41.0231 136.75 40.1793 138.164C40.1558 138.204 40.132 138.243 40.1078 138.282C43.9382 141.002 48.1057 143.46 52.504 145.477H105.632C109.759 143.584 113.683 141.304 117.316 138.782C117.179 138.582 117.047 138.376 116.921 138.165C116.076 136.75 116.537 134.919 117.949 134.074C119.362 133.228 121.191 133.69 122.035 135.104C122.054 135.136 122.074 135.168 122.093 135.2C125.006 132.844 127.67 130.355 130.028 127.832C127.964 127.068 126.147 125.539 124.891 123.431C124.047 122.017 124.508 120.185 125.921 119.341C127.334 118.496 129.163 118.958 130.006 120.373C130.781 121.671 131.9 122.416 133.078 122.416C134.051 122.416 134.804 121.915 135.286 121.462C137.555 118.3 139.268 115.208 140.309 112.382ZM143.488 42.4913C142.071 41.6531 140.244 42.1237 139.408 43.542L139.029 44.1826C138.748 44.6591 138.614 45.1822 138.614 45.6979C138.615 46.718 139.138 47.7113 140.079 48.2684C140.554 48.5499 141.076 48.6834 141.591 48.6834C142.611 48.6834 143.603 48.1599 144.159 47.2177L144.537 46.5767C144.819 46.1002 144.952 45.5771 144.952 45.0614C144.951 44.0413 144.429 43.048 143.488 42.4913ZM135.316 48.2878C133.898 47.4533 132.072 47.928 131.238 49.3482L130.862 49.9895C130.583 50.4638 130.451 50.9836 130.451 51.497C130.45 52.5201 130.976 53.5168 131.921 54.0727C132.395 54.3516 132.915 54.4843 133.428 54.4843C134.449 54.4843 135.444 53.9578 135.999 53.0126L136.376 52.3713C136.654 51.8971 136.787 51.3773 136.787 50.8639C136.787 49.8404 136.261 48.8437 135.316 48.2878ZM136.438 38.3302C135.021 37.492 133.195 37.9637 132.358 39.382L131.98 40.0226C131.699 40.4991 131.566 41.0223 131.566 41.5379C131.567 42.5581 132.09 43.5514 133.031 44.1077C133.507 44.3888 134.028 44.5223 134.543 44.5223C135.562 44.5223 136.555 43.998 137.111 43.0555L137.489 42.4149C137.769 41.9384 137.903 41.4152 137.903 40.8996C137.902 39.8798 137.379 38.8865 136.438 38.3302ZM160.852 49.9321C157.241 60.9512 151.681 72.9777 144.773 84.7109C141.828 89.7128 138.698 94.5592 135.47 99.1163C134.889 99.9362 133.971 100.374 133.038 100.374C132.442 100.374 131.84 100.195 131.317 99.8236C129.975 98.8706 129.658 97.0085 130.611 95.6651C133.742 91.2441 136.78 86.539 139.641 81.6814C145.265 72.1299 149.959 62.4001 153.379 53.2375C152.564 53.5391 151.721 53.8896 150.855 54.2863C150.76 54.3367 150.663 54.3818 150.562 54.4217C142.313 58.2767 131.946 66.2905 121.643 76.9673C121.346 77.8301 121.041 78.6955 120.728 79.5662C120.171 81.1161 118.466 81.9219 116.916 81.363C115.368 80.8055 114.565 79.0967 115.122 77.5468C115.491 76.5184 115.849 75.4957 116.197 74.4781C116.211 74.4326 116.227 74.3871 116.243 74.342C121.284 59.544 123.99 45.9518 123.893 36.4126C123.885 36.2981 123.883 36.1833 123.888 36.0688C123.885 35.8783 123.88 35.6893 123.875 35.5021C117.978 42.8336 112.157 51.3173 106.826 60.3695C105.227 63.0851 103.673 65.8513 102.209 68.5914C101.432 70.0441 99.6265 70.5911 98.176 69.8133C96.7252 69.0359 96.1789 67.2283 96.9553 65.776C98.4587 62.9639 100.053 60.1257 101.693 57.3397C108.51 45.7635 116.126 35.0703 123.718 26.417C124.447 25.587 125.575 25.228 126.648 25.4845C127.721 25.741 128.565 26.5706 128.841 27.6407C129.026 28.357 129.184 29.112 129.317 29.9047C138.014 22.5344 145.15 20.191 150.132 23.1317C156.541 26.9148 156.047 37.2075 153.825 46.8329C155.172 46.4466 156.459 46.18 157.678 46.0387C158.686 45.9209 159.686 46.3273 160.329 47.1155C160.971 47.9037 161.168 48.9653 160.852 49.9321ZM147.106 28.2712C144.888 26.9618 139.062 28.634 129.837 37.4682C129.763 45.0723 128.217 54.5608 125.334 65.0731C132.988 58.1298 140.416 52.815 146.965 49.5652C150.555 36.9316 149.66 29.7791 147.106 28.2712ZM144.184 33.2336C142.766 32.3973 140.94 32.8701 140.105 34.2892L139.728 34.9301C139.447 35.407 139.314 35.9301 139.315 36.4458C139.316 37.4659 139.841 38.4589 140.782 39.0144C141.257 39.2944 141.778 39.4275 142.291 39.4275C143.312 39.4275 144.306 38.9026 144.861 37.9588L145.238 37.3179C145.519 36.841 145.652 36.3179 145.651 35.8022C145.65 34.7821 145.126 33.7892 144.184 33.2336ZM53.1434 125.763C53.9869 124.349 53.5255 122.517 52.113 121.673C50.7009 120.828 48.8713 121.29 48.0279 122.704C47.2533 124.003 46.1339 124.747 44.9556 124.747C43.7777 124.747 42.6587 124.003 41.8845 122.704C41.041 121.29 39.2129 120.828 37.7993 121.672C36.3868 122.517 35.925 124.348 36.7685 125.762C38.6167 128.862 41.6774 130.713 44.9556 130.713C48.2338 130.713 51.2945 128.863 53.1434 125.763ZM75.5393 125.763C76.3831 124.349 75.9217 122.518 74.5092 121.673C73.0971 120.829 71.2675 121.29 70.4237 122.704C69.6487 124.002 68.5293 124.747 67.3514 124.747C66.1735 124.747 65.0541 124.003 64.2795 122.704C63.4361 121.29 61.6072 120.828 60.1944 121.673C58.7819 122.517 58.3205 124.349 59.164 125.763C61.0129 128.863 64.0736 130.713 67.3514 130.713C70.6292 130.713 73.69 128.863 75.5393 125.763ZM112.143 130.713C115.421 130.713 118.482 128.863 120.331 125.763C121.174 124.349 120.713 122.517 119.3 121.673C117.888 120.828 116.059 121.29 115.215 122.704C114.44 124.003 113.321 124.747 112.143 124.747C110.965 124.747 109.845 124.003 109.071 122.704C108.227 121.29 106.398 120.828 104.986 121.673C103.573 122.517 103.112 124.349 103.955 125.763C105.804 128.863 108.865 130.713 112.143 130.713ZM62.4284 134.073C61.0159 133.229 59.187 133.69 58.3432 135.105C57.5682 136.403 56.4485 137.148 55.2706 137.148C54.0931 137.148 52.9736 136.403 52.1983 135.105C51.3545 133.69 49.5253 133.228 48.1131 134.073C46.7006 134.918 46.2396 136.75 47.0831 138.164C48.9324 141.263 51.9931 143.114 55.2702 143.114C58.548 143.114 61.6087 141.263 63.458 138.164C64.3023 136.749 63.8409 134.918 62.4284 134.073ZM75.4775 135.105C74.634 133.69 72.8052 133.228 71.3923 134.073C69.9798 134.917 69.5184 136.749 70.3619 138.163C72.2108 141.263 75.2715 143.113 78.5493 143.113C81.8279 143.113 84.8886 141.263 86.7372 138.163C87.5807 136.749 87.1193 134.917 85.7068 134.073C84.2943 133.229 82.4651 133.69 81.6216 135.105C80.8474 136.403 79.7276 137.147 78.5493 137.147C77.3715 137.148 76.2517 136.403 75.4775 135.105ZM89.7469 130.713C93.0251 130.713 96.0862 128.863 97.9351 125.763C98.7786 124.349 98.3172 122.517 96.9047 121.673C95.4922 120.828 93.6634 121.29 92.8195 122.704C92.0449 124.003 90.9251 124.747 89.7473 124.747C88.5694 124.747 87.45 124.003 86.6754 122.704C85.8319 121.29 84.0031 120.828 82.5902 121.673C81.1777 122.517 80.7163 124.349 81.5598 125.763C83.4084 128.863 86.4687 130.713 89.7469 130.713ZM94.6707 134.073C93.2582 134.918 92.7968 136.749 93.6403 138.164C95.4892 141.263 98.5499 143.114 101.828 143.114C105.106 143.114 108.166 141.263 110.016 138.164C110.859 136.75 110.398 134.918 108.986 134.073C107.573 133.229 105.744 133.69 104.9 135.105C104.125 136.403 103.006 137.148 101.828 137.148C100.65 137.148 99.5304 136.403 98.7559 135.105C97.9128 133.69 96.0839 133.228 94.6707 134.073Z" fill="white"/>
</svg>
