<svg width="159" height="156" viewBox="0 0 159 156" fill="none" xmlns="http://www.w3.org/2000/svg">
<path d="M127.891 0L108.536 7.60712L96.7826 19.7136V34.9144C96.2761 34.8918 93.4588 34.807 89.8696 34.7252V31.4756C89.8696 29.4002 88.487 28.0166 86.413 28.0166C84.3391 28.0166 82.9565 29.4002 82.9565 31.4756V34.6576C79.5585 34.6502 76.1125 34.708 72.587 34.8468V31.4757C72.587 29.4002 71.2043 28.0166 69.1304 28.0166C67.0565 28.0166 65.6739 29.4002 65.6739 31.4757V35.1779C60.5755 35.4551 55.9794 35.8099 51.8478 36.225V31.4756C51.8478 29.4002 50.4652 28.0166 48.3913 28.0166C46.3174 28.0166 44.9348 29.4002 44.9348 31.4756V36.9749C40.1202 37.5693 36.2988 38.1392 34.3829 38.4341H34.3694L34.3492 38.4409C33.1157 38.6432 32.2711 38.8334 31.1087 39.0354V32.8606C31.1087 30.7852 29.7261 29.4016 27.6521 29.4016C25.5782 29.4016 24.1956 30.7852 24.1956 32.8606V40.3123C16.1355 41.882 10.4303 43.2386 6.91304 44.197V37.0087C6.91304 34.9333 5.53044 33.5497 3.45652 33.5497C1.38261 33.5497 0 34.9333 0 37.0087V78.1723C2.41957 76.4428 4.49348 74.7119 6.91304 73.3283V51.3447C9.78182 50.5196 15.5973 49.0365 24.1957 47.3317V61.9176C24.1957 62.6094 24.54 62.9553 24.54 63.6471C26.6139 62.6094 28.6891 61.9136 31.1087 61.2218V46.0683C32.6398 45.797 33.8003 45.5383 35.4699 45.2644C37.2789 44.9858 40.7268 44.4798 44.9348 43.9471V56.3779V57.0738H45.2791C47.353 56.382 49.4283 55.6915 51.8478 54.9997V43.1769C55.9395 42.7571 60.5535 42.3935 65.6739 42.1095V51.8853C67.7478 51.5393 70.1674 51.1907 72.587 50.8448V41.7649C76.0715 41.6231 79.5316 41.5679 82.9565 41.5757V49.4598C83.9935 49.4598 85.0331 49.1152 85.7244 49.1152H89.8696V41.6432C93.3859 41.7241 96.449 41.8182 96.7826 41.8324V48.7707C101.276 48.7707 105.424 48.7693 110.609 49.1152V31.4756C110.609 29.4002 111.991 28.0166 114.065 28.0166H141.717C143.791 28.0166 145.174 29.4002 145.174 31.4756V51.5405C149.667 51.8865 154.507 52.5782 159 53.27V19.7136L147.246 7.9516L127.891 0ZM127.891 14.1806C129.965 14.1806 131.348 15.5642 131.348 17.6396C131.348 19.715 129.965 21.0986 127.891 21.0986C125.817 21.0986 124.435 19.715 124.435 17.6396C124.435 15.5642 125.817 14.1806 127.891 14.1806ZM94.71 56.3778C80.1927 63.2958 66.0209 71.257 53.2318 80.9422C34.5666 94.4323 19.0122 109.994 1.38396 132.131L0 133.516V156H30.7644L31.1087 154.96C33.1826 149.425 48.043 120.373 66.3625 98.5817C82.2625 79.5572 97.8209 65.7225 110.264 56.729C104.388 56.3831 99.5492 56.3778 94.71 56.3778ZM122.018 57.4181C109.92 64.3362 90.9092 79.9004 71.8984 102.73C54.6157 123.83 41.1313 149.428 38.366 156H76.0435L76.3878 154.96C82.9552 135.243 91.5978 116.566 101.967 99.2708C112.683 81.9758 124.436 67.4466 132.732 58.1073C129.275 57.7613 125.82 57.7641 122.018 57.4181ZM76.7321 57.7628C63.943 59.4923 53.919 62.2622 47.3517 63.9917C36.6364 67.1048 28.3408 69.5234 17.9712 75.0578C12.4408 78.1709 6.91169 81.6286 2.07256 85.7794L0 87.5089V122.795C16.5913 102.733 31.4516 88.5466 49.0799 75.4024C57.7212 68.8302 67.0538 63.2972 76.7321 57.7628ZM141.373 58.4586C133.423 67.4521 119.593 83.0135 107.841 102.73C97.8169 119.333 89.5226 137.321 83.3008 156H117.177L117.522 155.311C120.978 139.745 125.469 124.522 130.308 109.648C135.839 92.6988 142.756 75.7496 150.014 59.4923C147.249 59.1463 144.484 58.8046 141.373 58.4586ZM156.927 60.5327C149.323 77.1359 142.409 94.4269 136.533 111.722C131.693 126.25 127.547 141.126 124.09 156H159V60.5327L156.927 60.5327Z" fill="white"/>
</svg>
