<svg width="159" height="159" viewBox="0 0 159 159" fill="none" xmlns="http://www.w3.org/2000/svg">
<path d="M59.7244 0C49.3099 0 43.9389 14.0747 38.2594 29.0175C36.3482 34.0387 34.4275 39.1617 32.2969 43.725C45.6879 39.1045 61.7715 36.4706 79.5 36.4706C97.397 36.4706 113.64 39.1212 127.101 43.8244C125.205 39.6586 123.4 35.0778 121.635 30.5081C115.583 14.8275 109.875 0 99.2756 0C94.2671 0 90.7492 2.86041 87.6488 5.36625C84.9139 7.57635 82.5751 9.44062 79.5 9.44062C76.4249 9.44062 74.0861 7.57635 71.3513 5.36625C68.2476 2.86041 64.7361 0 59.7244 0ZM79.5 42.8306C34.9196 42.8306 0 60.4836 0 83.0775C0 97.1681 13.7789 109.926 36.9675 117.262C45.5281 137.3 58.7028 159 79.5 159C100.3 159 113.472 137.207 122.033 117.163C145.202 109.824 159 97.1554 159 83.0775C159 60.4868 124.08 42.8306 79.5 42.8306ZM79.5 69.96C115.847 69.96 120.468 79.4173 120.84 80.295V87.8475L124.517 87.3506C124.517 87.3506 126.818 87.0859 128.392 88.4438C130.049 89.8779 130.38 92.6922 130.38 94.8037C130.38 99.4179 126.955 103.174 122.43 103.648L120.542 103.847L119.846 105.735C107.851 137.309 94.6177 152.64 79.5 152.64C64.3855 152.64 51.2417 137.306 39.2531 105.735L38.5575 103.847L36.57 103.648C32.029 103.187 28.62 99.4306 28.62 94.8037C28.62 91.9068 29.3037 89.8223 30.6075 88.6425C32.242 87.1638 34.5825 87.3506 34.5825 87.3506L38.16 87.7481V80.3944C38.6211 79.2273 43.4801 69.96 79.5 69.96Z" fill="white"/>
</svg>
