<svg width="168" height="140" viewBox="0 0 168 140" fill="none" xmlns="http://www.w3.org/2000/svg">
<path d="M47.3778 0L45.8829 7.1066H57.8905L56.3952 0H47.3778ZM48.6909 13.5025V18.4772H55.0825V13.5025H48.6909ZM37.7844 24.8731L35.0218 58.2741H41.1098L43.2403 29.8477H89.5951L88.8849 24.8731H37.7844ZM145.274 33.0457V59.554C147.408 59.7189 149.539 59.9162 151.666 60.146V33.0457H145.274ZM49.1703 36.2437L47.5188 58.2741H49.7558C53.3077 58.2741 56.6956 59.7949 60.0533 62.0566V36.2437H49.1703ZM66.4452 36.2437V66.1838L94.142 69.2684V61.7013L90.5077 36.2437H66.4452ZM23.4797 64.6701C20.6391 64.6701 15.2091 67.0717 10.2077 71.0756C6.33439 74.1762 2.66066 78.1431 0 82.1498L5.97007 83.6432C13.0789 74.6992 24.0362 68.934 36.2625 68.934C54.2278 68.934 69.456 81.3791 73.7547 98.0711H81.0016C77.759 91.4125 72.8073 83.7825 67.3937 77.5014C64.0807 73.6571 60.6246 70.3273 57.4708 68.0492C54.3172 65.7709 51.4769 64.6701 49.7562 64.6701H23.4797ZM100.534 64.691V103.756H111.95C115.176 93.0414 121.251 85.7159 129.393 82.0126C133.764 80.0242 138.621 79.0616 143.858 78.9646C147.906 78.8893 152.183 79.3374 156.637 80.2225V67.2565C152.556 66.6237 147.73 66.1273 142.564 65.7631C128.287 64.7571 111.97 64.6971 100.534 64.691ZM163.029 68.5336V75.33H168V70.565C166.587 69.6063 164.483 68.9283 163.029 68.5336ZM72.1756 73.2577C72.1948 73.2801 72.2147 73.3014 72.2339 73.3238C79.3342 81.5614 85.6714 91.6552 88.9535 100.111L90.6444 104.467H74.8324C74.9201 105.522 74.9673 106.588 74.9673 107.665C74.9673 110.216 74.7141 112.71 74.2369 115.127H94.142V75.7048L72.1756 73.2577ZM36.2629 75.33C18.4798 75.33 3.94998 89.8701 3.94998 107.665C3.94998 125.46 18.4798 140 36.2629 140C54.0456 140 68.5757 125.46 68.5757 107.665C68.5757 89.8701 54.0456 75.33 36.2629 75.33ZM163.029 81.7259V86.7005H168V81.7259H163.029ZM36.2629 83.1472C49.813 83.1472 60.7638 94.1056 60.7638 107.665C60.7638 121.224 49.813 132.183 36.2629 132.183C22.7124 132.183 11.7619 121.224 11.7619 107.665C11.7619 94.1056 22.7124 83.1472 36.2629 83.1472ZM145.489 85.3751C140.91 85.4334 135.77 86.1796 132.038 87.8351C126.059 90.5548 121.501 95.4907 118.655 103.756H122.408C127.356 95.684 136.261 90.2538 146.34 90.2538C149.868 90.2545 153.363 90.9299 156.637 92.2437V86.7545C152.666 85.896 148.938 85.4316 145.489 85.3751ZM36.2629 89.5431C26.1116 89.5431 18.1534 97.5072 18.1534 107.665C18.1534 117.823 26.1116 125.787 36.2629 125.787C46.4137 125.787 54.3723 117.823 54.3723 107.665C54.3723 97.5072 46.4137 89.5431 36.2629 89.5431ZM163.029 93.0964V95.8218C164.871 97.1977 166.54 98.7913 168 100.568V93.0964H163.029ZM146.34 96.6497C134.447 96.6497 124.679 106.424 124.679 118.325C124.679 130.226 134.447 140 146.34 140C158.232 140 168 130.226 168 118.325C168 106.424 158.232 96.6497 146.34 96.6497ZM146.34 104.467C153.98 104.467 160.188 110.68 160.188 118.325C160.188 125.97 153.98 132.183 146.34 132.183C138.699 132.183 132.491 125.97 132.491 118.325C132.491 110.68 138.699 104.467 146.34 104.467ZM100.534 110.152V115.616L118.291 118.578C118.29 118.493 118.288 118.409 118.288 118.325C118.288 115.486 118.721 112.743 119.518 110.152H100.534ZM146.34 110.863C142.045 110.863 138.883 114.027 138.883 118.325C138.883 122.623 142.045 125.787 146.34 125.787C150.634 125.787 153.797 122.623 153.797 118.325C153.797 114.027 150.634 110.863 146.34 110.863Z" fill="white"/>
</svg>
